<svg xmlns="http://www.w3.org/2000/svg" viewBox="0 0 1261 900.2"><defs><style>.cls-1{isolation:isolate;}.cls-2{fill:#606060;}.cls-2,.cls-20{opacity:0.12;mix-blend-mode:multiply;}.cls-3{fill:#a1bdcc;}.cls-4{fill:#8aad9f;}.cls-5{fill:#8c9498;}.cls-6{fill:#3a3029;}.cls-7{fill:#eacdb0;}.cls-8{fill:#fff;}.cls-9{fill:#514943;}.cls-10{fill:#cab5a1;}.cls-11{fill:#bcac98;}.cls-12{fill:#d3c2a4;}.cls-13{fill:#37454d;}.cls-14{fill:#4f3c22;}.cls-15{fill:#dacaaf;}.cls-16{fill:#c2969c;}.cls-17{fill:#754c3d;}.cls-18{fill:#f2d263;}.cls-19{fill:#b0d3ba;}.cls-21{fill:#2e4661;}.cls-22{fill:#b26650;}.cls-23{fill:#aeccdc;}.cls-24{fill:#94baab;}.cls-25{fill:#9e6652;}</style></defs><title>healthy_family</title><g class="cls-1"><g id="shadow"><path class="cls-2" d="M1367.68,957.31c-95.1-52.26-428-20.9-428-20.9-23.76,3.2-44.24,6.36-61.77,9.49,0,0-96.35,15.33-142.71,8.8-37.1-5.23-138.91-12.13-192.72,1.39-17.95-4.25-42.79-8.63-75.92-13.09,0,0-254.79-24-327.58,16s158.33,48,224.75,51c31.77,1.43,121.19-5.14,175-16.54,41.94,8,118.41,6.77,159.62,1.74,64.18-7.84,96.41.42,168.82,11.31,70.58,12.29,169.38,19.12,206.84,17.43C1160.83,1020,1462.79,1009.57,1367.68,957.31Z" transform="translate(-125 -124)"/></g><g id="object"><polygon class="cls-3" points="427.83 227.62 490.12 186.1 532.73 110.7 550.45 122.22 518.52 210.14 442.04 242.92 427.83 227.62"/><polygon class="cls-4" points="816.26 254.89 802.34 261.49 744.43 345.63 747.45 365.84 790.32 365.3 816.26 254.89"/><polygon class="cls-5" points="517.82 451.75 521.62 614.13 493.5 823.89 469.97 824.17 452.82 631.13 418.32 438.3 517.82 451.75"/><polygon class="cls-6" points="470.07 821.37 470.22 834.09 495.82 846.51 508.4 833.64 495.52 821.07 470.07 821.37"/><polygon class="cls-6" points="389.99 827.5 410.23 844.7 405.17 854.82 367.74 846.72 367.74 827.5 389.99 827.5"/><polygon class="cls-5" points="436.21 515.62 419.39 673.02 397.2 829.91 365.55 828.4 366.7 665.65 347.65 514.69 392.4 493.85 436.21 515.62"/><path class="cls-3" d="M496.71,361.64,558.2,350.1S600,377,631.77,458.49c32.31,83,38,195.8,38,195.8S449,711.11,462.62,671.87L476.35,486Z" transform="translate(-125 -124)"/><path class="cls-7" d="M544.19,362l-20.57,7.83a110.13,110.13,0,0,1-6.74-16.19c-6.4.81-14.12,1.07-17.91-4.15a18.14,18.14,0,0,1-2.38-5.57q-3.61-12.07-7.24-24.13c-.83-2.79-1.68-5.66-1.38-8.55.53-5.06,4.43-9.11,8.53-12.14,10.48-7.7,24.21-11.45,36.85-8.37a19.78,19.78,0,0,1,9.2,4.55c3.85,3.69,5.12,9.25,6.21,14.48q1.5,7.23,3,14.46c1.16,5.55,2.08,12.05-1.73,16.24-2,2.23-5.13,3.42-6.68,6C540.64,351,544.15,356.71,544.19,362Z" transform="translate(-125 -124)"/><path class="cls-6" d="M571.24,256.2a70.12,70.12,0,0,0-9-14.06c-5.7-7.09-16.87-6-25.28-2.53-18.17,7.51-39.07,8-53.17,22.64-8.06,8.38-20.8,15.77-27.21,25.13A29.24,29.24,0,0,0,452,300.69a44.08,44.08,0,0,0,20.69,41.76,63.11,63.11,0,0,0,10,4.68c7.13,2.7,15.74,6.14,23,4.83-2.68-5.77-16.81-21.13-14.77-28,3.24-10.86,20.21-16.1,29.72-18.56,10.38-2.7,22.06-.22,32.07-3.44,7.2-2.32,14.11-9.86,18.08-16.16C577.06,276,575.58,265.49,571.24,256.2Z" transform="translate(-125 -124)"/><path class="cls-8" d="M546.28,361.45c20.11,39.36,39.8,79,60.36,118.1,12.18,23.18,14.38,48.28,18,73.76l10.71,76q2.26,16.07,4.52,32.11l-91.79,17.45c2.76-31.27,6.3-62.49,8.48-93.81,2-28.89,6.07-61.48-1.57-89.8-3.72-13.78-7.65-27.54-11.44-41.31Q533.08,416,522.38,378.19c-.5-1.77-2.75-6.19-2.33-8Z" transform="translate(-125 -124)"/><polygon class="cls-9" points="906.49 821.02 907.51 831.1 889.24 843.66 878.57 834.83 887.2 823.51 905.48 810.94 906.49 821.02"/><polygon class="cls-10" points="906.04 512.96 909.13 543.56 881.73 648.69 907.17 817.64 888.44 824.11 839.04 659.16 831.2 611.18 831.49 509.6 906.04 512.96"/><polygon class="cls-10" points="761.96 547.06 801.36 830.16 819.27 830.16 822.49 648.69 855.09 521.33 761.96 547.06"/><polygon class="cls-9" points="819.17 827.92 819.17 838.09 799.8 848.26 790.11 838.09 799.8 827.92 819.17 827.92"/><path class="cls-4" d="M1030.05,602.94c-15.3-100.53-9.84-173.74-10.63-193.84a41.7,41.7,0,0,0-14.91-30.54c-6.19-1.38-11.58-5.36-17.83-6.94-42.29-10.64-65.36,21.66-81.2,56.49a999.79,999.79,0,0,0-49.14,132.5c-11.63,39.71-23.29,79.77-28.16,121-2,17-3.69,33.12,14.92,40.62,29.66,12,63,11.69,94.33,15.53,36,4.4,72,7.62,108.25,9.12C1064.59,747.65,1045.35,703.46,1030.05,602.94Z" transform="translate(-125 -124)"/><path class="cls-11" d="M408.24,933.91s1.25,10.29,13.84,10.46,17.73,8.64,6.18,8.48-25.28,2-29.85-6.56S404.84,927.8,408.24,933.91Z" transform="translate(-125 -124)"/><path class="cls-12" d="M369.54,888s-4.5,1-6.71,9.33-54.5-6-72.51,6.35-20.35,22.8-22.61,41.67c-4.78,39.89,66.69,35.55,91,26.44S423.91,959,413,915.82C410.87,914.74,369.54,888,369.54,888Z" transform="translate(-125 -124)"/><path class="cls-13" d="M416.44,911.8l-3.6,2.83s-17.89,5.78-38.18-17.14c-8-12.15-5.43-14.19-5.43-14.19l4.55,1S382.17,910.78,416.44,911.8Z" transform="translate(-125 -124)"/><path class="cls-14" d="M399.42,849.2s1.78-2.73,6.86-2.84,12.78,8.2,14.64,8.88,6.38,1.78,1.84,3.49S401.62,854.34,399.42,849.2Z" transform="translate(-125 -124)"/><path class="cls-15" d="M381.92,860.28s8.06-11,19.94-11.13c7,0,13.32,2.9,18.59,7.38,2.68,2.29,4.8,5.05,7.32,7.48,1.67,1.61,3.75,2.34,5.38,4.09a19.85,19.85,0,0,1,4.2,17.11c-1.49,5.47,4.71,21.52-13.59,25.44S381.2,903.53,376,894,366.24,874.89,381.92,860.28Z" transform="translate(-125 -124)"/><path class="cls-14" d="M384.89,861.62s-5.43-3.29-10-1-8.15,1.43-8,6.51-.74,17.75,5.31,21.65,4.64-6.53,7.72-10.12S388.2,863.17,384.89,861.62Z" transform="translate(-125 -124)"/><path class="cls-12" d="M408.4,936.85s1,14.69,8.32,15.84,25.07,8.74,21.87,12.9-8.4-.12-13.65-.19-20.54,2.11-33.3-2.94c-12-1.5-17.46,3.85-17.46,3.85Z" transform="translate(-125 -124)"/><path class="cls-11" d="M276.18,925.7c-1.8-.54-11.4-3.18-11.79-14.46s7-20.45,18.33-20.24,11.09,10.44,8.75,11.94-16.16,3.17-14.15,15.59C278.89,923.82,276.18,925.7,276.18,925.7Z" transform="translate(-125 -124)"/><polygon class="cls-7" points="593.97 183.4 608.14 196.09 669.59 216.19 674.17 205.33 626.28 172.13 593.97 183.4"/><polygon class="cls-7" points="576.81 204.23 583.46 219.05 638.93 253.3 647.18 245.65 607.23 206.14 599.16 185.1 583.61 183.46 576.81 204.23"/><path class="cls-16" d="M661.05,190.33s6.69-6.29,15.24-5.91,42.52,7.62,60.1,23.26,42,32.16,26.68,80.61c-9.57,22.43-25.55,9.14-38.71,22.27s-18.83,29.44-38.85,8.55-12.93-38.86-30.5-67.65S638.12,202.17,661.05,190.33Z" transform="translate(-125 -124)"/><polygon class="cls-16" points="541.86 62.51 579.51 40.67 603.42 20.21 613.27 29.46 596.48 55.12 570.13 75.47 541.86 62.51"/><polygon class="cls-16" points="513.76 89.09 502.15 118.9 478.82 132.01 482.6 140.53 511.26 133.98 528.16 117.13 513.76 89.09"/><path class="cls-17" d="M600.18,169.16s-3.06,22.35,12.17,33.4c0,0-15.58,2.77-22.47-10.29S581.22,173,592,165.07,600.18,169.16,600.18,169.16Z" transform="translate(-125 -124)"/><path class="cls-7" d="M604.62,195.54c-19.51-20.11,4.16-45.45,28.06-40.66,13.59,2.72,33.09,18.05,27.4,33.33,1.86,1.6,5.41,4.49,5.67,6.95.28,2.67-4.75,6.89-6.65,8.59a3.87,3.87,0,0,1-1.8,1.06c-.88.15-2.31-.73-3.84-1.79a23.54,23.54,0,0,1-4.13,3.94c-6.75,5-16.14,5.48-24.11,2.79S610.48,201.58,604.62,195.54Z" transform="translate(-125 -124)"/><path class="cls-17" d="M602.82,177.32c14-.6,24.68-11.76,38.21-12.2,0,0,8.85-.29,19.43,11a25.34,25.34,0,0,0,3.69-27.62c-7.44-15.91-42-24.53-42-24.53s-23,5.23-35.1,28c-4.09,7.71-4.31,17.69,4.19,22.67A20.8,20.8,0,0,0,602.82,177.32Z" transform="translate(-125 -124)"/><path class="cls-18" d="M667.34,186.49s11.88,7.86,8.15,14.55S658,218.63,654.14,219.16c-5.41.73-10.52-9.2-10.52-9.2l-4.86,3.13s22.54,53.84,42.08,43.46,38.45-28.61,28.81-42.74-37-29.95-37-29.95Z" transform="translate(-125 -124)"/><polygon class="cls-6" points="668.1 216.86 672.31 228.58 677.49 226.83 679.81 209.19 673.22 204.74 668.1 216.86"/><polygon class="cls-6" points="645.45 243.94 635.64 251.07 632.4 259.21 637.95 263.33 649.96 247.71 645.45 243.94"/><polygon class="cls-7" points="604.48 21.21 611.82 7.38 614.68 8.98 614.56 22.67 617.53 21.82 617.42 24.27 611.83 28.1 604.48 21.21"/><polygon class="cls-7" points="479.4 133.01 473.16 132.77 468.49 138.92 471.66 144.44 478.45 145.72 482.31 140.23 479.4 133.01"/><path class="cls-19" d="M771.24,361.83c-35,6.33-72.82,37.42-74.67,71.25-18.7-28.25-76.39-33.11-109.81-20.86C498.58,444.54,497,559.83,554.85,621.39c31.12,33.13,69.92,59,110.48,80.59,34,18.12,118.41,53.18,118.57,52.93.26.13,55.4-72.81,75.55-105.61,24.06-39.17,44.48-81.06,54.58-125.38C932.8,441.58,863.67,345.14,771.24,361.83Z" transform="translate(-125 -124)"/><path class="cls-20" d="M898.94,537.78a524.36,524.36,0,0,1-55.35,100.14c-21.25,29.94-48,58.26-81.49,74.39a120.79,120.79,0,0,1-49.56,12.24c35.21,15.8,73.07,31.45,73.18,31.29.26.13,55.4-72.81,75.55-105.61,24.06-39.17,44.48-81.06,54.58-125.38A128.08,128.08,0,0,0,918,481.22,392.9,392.9,0,0,1,898.94,537.78Z" transform="translate(-125 -124)"/><path class="cls-8" d="M889.19,507.78l-70.43,21.16-52.52-92c-2.53-4.43-9.11-2.26-9.31,2.53l-8.19,187.14-.48,10.84L680.15,534.22l-10.93-16.56c-2.19-3.33-8.26-3.23-9.14,1.24q-6.09,31.23-12.2,62.46L568.49,602.9c-6.21,1.69-3.6,11.35,2.62,9.66L653.5,590.2a5,5,0,0,0,3.52-3.52q5.22-26.76,10.45-53.52l69.88,105.92,10.93,16.56a5,5,0,0,0,9.31-2.53L765.78,466l.39-9,45.91,80.4a5.07,5.07,0,0,0,5.62,2.28l74.11-22.27C898,515.58,895.37,505.92,889.19,507.78Z" transform="translate(-125 -124)"/><polygon class="cls-21" points="695.51 717.98 695.51 834.93 713.16 834.93 724.19 764.32 734.12 710.26 695.51 717.98"/><polygon class="cls-21" points="734.12 705.84 740.74 756.6 749.57 838.24 767.22 837.14 767.22 774.25 776.05 710.26 734.12 705.84"/><path class="cls-22" d="M850.85,659.38s-18.76-3.31-26.48,25.38S795.68,797.3,794.58,841.43s27.58,15.45,61.78,21,62.34,6.07,62.34-13.79S930.84,659.93,850.85,659.38Z" transform="translate(-125 -124)"/><path class="cls-7" d="M840.08,602.36c15.62-27.55,50.62-9.92,53,17.53,1.36,15.61-9.08,41.63-27.46,40.31-1.15,2.52-3.16,7.29-5.74,8.36-2.8,1.15-9-3-11.43-4.49a4.29,4.29,0,0,1-1.73-1.62c-.44-.9.06-2.74.73-4.74a26.19,26.19,0,0,1-5.58-3.22c-7.59-5.73-11.07-15.77-10.68-25.28S835.39,610.64,840.08,602.36Z" transform="translate(-125 -124)"/><path class="cls-17" d="M861.88,595.2s25,6.25,25,16.67c0,15.66,1,26.16,0,35.48l17.71-10.48L915,607.7s-2.08-24-14.58-28.12-38.54-8.33-38.54-8.33L842.1,577.5l-14.59-1,5,43.74S839,589,861.88,595.2Z" transform="translate(-125 -124)"/><polygon class="cls-22" points="745.16 539.24 776.05 550.28 803.63 618.68 825.7 668.33 813.56 676.05 778.25 626.4 745.16 539.24"/><polygon class="cls-7" points="813.56 676.05 821.28 687.09 825.7 682.67 838.94 682.67 825.7 668.33 813.56 676.05"/><polygon class="cls-5" points="695.51 834.93 685.58 844.86 689.99 851.48 709.85 844.86 709.85 834.93 695.51 834.93"/><polygon class="cls-5" points="752.51 838.06 756.19 852.59 768.33 857 774.95 853.69 764.67 837.3 752.51 838.06"/><polygon class="cls-22" points="714.81 537.67 701.81 547.77 675.59 610.06 659.2 654.86 670.12 660.32 685.42 639.56 714.81 537.67"/><polygon class="cls-7" points="670.12 660.32 667.94 665.78 653.73 671.25 653.73 663.6 659.2 654.86 670.12 660.32"/><polygon class="cls-7" points="746.4 266.99 742.13 254.29 728.38 245.38 709.16 258.97 719.89 268.53 740.64 263.31 746.4 266.99"/><polygon class="cls-7" points="580.33 100.12 582.66 76.99 586.28 73.55 590.94 75.51 590.66 81.67 594.97 75.22 603.8 71.45 616.26 82.17 604.99 106.16 580.33 100.12"/><polygon class="cls-23" points="368.89 254.89 505.41 204.67 580.81 89.94 607.03 104.15 552.4 234.18 413.12 310.37 364.46 281.16 368.89 254.89"/><polygon class="cls-24" points="903.96 284.44 881.01 413.38 801.25 476.75 786.57 460.07 848.23 388.24 859.16 291 879.92 254.94 903.96 284.44"/><polygon class="cls-7" points="787.04 460.36 768.46 476.75 768.02 493.85 775.02 496.42 787.04 488.77 797.15 472.1 787.04 460.36"/><path class="cls-25" d="M956.32,295.46s-11.16,5.28-13.74,34.3-9.75,46.7-9.75,46.7,8.52,6.75,16.59,4.12,10.9-2.85,11.1-14.85,8.41-67.42,8.41-67.42Z" transform="translate(-125 -124)"/><path class="cls-25" d="M977,310.61a29.14,29.14,0,0,0-26,18.69,25.67,25.67,0,0,1,15.48-38.94,29.67,29.67,0,0,1,9.68,20.25Z" transform="translate(-125 -124)"/><path class="cls-7" d="M951.87,319.49c12.68-27.61,47.57-13.63,52.11,12.41,2.58,14.8-5.27,40.53-23,40.78-.89,2.5-2.42,7.22-4.8,8.45-2.58,1.33-8.82-2.1-11.29-3.35a4.14,4.14,0,0,1-1.78-1.41c-.5-.82-.17-2.62.31-4.59a24.68,24.68,0,0,1-5.61-2.62C950.15,364.3,946,355,945.59,345.88S948.06,327.78,951.87,319.49Z" transform="translate(-125 -124)"/><path class="cls-25" d="M967.17,290.46s-7.39,14.84,11.6,24.2,28.13,28.3,20.54,44-25.46,24.26-18.68,30.58,36.66,9.11,36.66,9.11,32-54.15,14.71-85.32S980.89,272.55,967.17,290.46Z" transform="translate(-125 -124)"/></g></g></svg>